<svg xmlns="http://www.w3.org/2000/svg" enable-background="new 0 0 64 64" viewBox="0 0 64 64"><path fill="#ffd926" d="M50.61,30.52c0.78,2.72-0.8,5.55-3.51,6.33c-2.72,0.79-5.55-0.79-6.33-3.5c-0.4-1.41-0.17-2.85,0.53-4.02L32,32l-2.67-9.3c1.17,0.69,2.61,0.93,4.03,0.52c2.71-0.78,4.28-3.61,3.5-6.33c-0.78-2.71-3.62-4.28-6.33-3.5c-1.42,0.41-2.52,1.37-3.14,2.59l-2.67-9.29l22.94-6.6c1.31-0.37,2.67,0.38,3.05,1.69l6.6,22.94l-9.29,2.67C49.23,28.01,50.2,29.11,50.61,30.52z"/><path fill="#e82327" d="M33.36,23.22c-1.42,0.41-2.86,0.17-4.03-0.52L32,32l-9.3,2.67c0.7-1.17,0.93-2.62,0.53-4.03c-0.78-2.71-3.61-4.29-6.33-3.5c-2.71,0.78-4.29,3.62-3.51,6.33c0.41,1.41,1.38,2.51,2.59,3.13l-9.29,2.67L0.1,16.34c-0.38-1.31,0.38-2.68,1.69-3.06l22.93-6.59l2.67,9.29c0.62-1.22,1.72-2.18,3.14-2.59c2.71-0.78,5.55,0.79,6.33,3.5C37.64,19.61,36.07,22.44,33.36,23.22z"/><path fill="#57bb6e" d="M39.28,57.3l-22.94,6.6c-1.31,0.38-2.67-0.38-3.05-1.69l-6.6-22.94l9.29-2.67c-1.21-0.62-2.18-1.72-2.59-3.13c-0.78-2.71,0.8-5.55,3.51-6.33c2.72-0.79,5.55,0.79,6.33,3.5c0.4,1.41,0.17,2.86-0.53,4.03L32,32l2.67,9.3c-1.17-0.7-2.61-0.94-4.03-0.53c-2.71,0.78-4.28,3.61-3.5,6.33c0.78,2.71,3.62,4.28,6.33,3.5c1.42-0.41,2.52-1.37,3.14-2.59L39.28,57.3z"/><path fill="#87d4f2" d="M62.21,50.71L39.28,57.3l-2.67-9.29c-0.62,1.22-1.72,2.18-3.14,2.59c-2.71,0.78-5.55-0.79-6.33-3.5c-0.78-2.72,0.79-5.55,3.5-6.33c1.42-0.41,2.86-0.17,4.03,0.53L32,32l9.3-2.67c-0.7,1.17-0.93,2.61-0.53,4.02c0.78,2.71,3.61,4.29,6.33,3.5c2.71-0.78,4.29-3.61,3.51-6.33c-0.41-1.41-1.38-2.51-2.59-3.13l9.29-2.67l6.59,22.93C64.28,48.96,63.52,50.33,62.21,50.71z"/></svg>